<svg class="cw-logo-mark" role="img" aria-label="ChadWallet" version="1.0" xmlns="http://www.w3.org/2000/svg"
 width="100%" height="100%" viewBox="0 0 512.000000 512.000000"
 preserveAspectRatio="xMidYMid meet">
<metadata>
Created by potrace 1.16, written by Peter Selinger 2001-2019
</metadata>
<g transform="translate(0.000000,512.000000) scale(0.100000,-0.100000)"
fill="currentColor" stroke="none">
<path d="M2320 4855 c0 -13 -23 -15 -150 -15 -93 0 -150 -4 -150 -10 0 -6 -37
-10 -90 -10 -73 0 -90 -3 -90 -15 0 -12 -13 -15 -60 -15 -33 0 -60 -4 -60 -10
0 -5 -25 -10 -55 -10 -42 0 -55 -3 -55 -15 0 -11 -12 -15 -50 -15 -27 0 -50
-4 -50 -10 0 -5 -22 -10 -50 -10 -38 0 -50 -4 -50 -15 0 -10 -11 -15 -35 -15
-19 0 -35 -4 -35 -10 0 -5 -11 -10 -25 -10 -16 0 -25 -6 -25 -15 0 -9 -9 -15
-25 -15 -14 0 -25 -4 -25 -10 0 -5 -11 -10 -25 -10 -16 0 -25 -6 -25 -15 0 -9
-10 -15 -26 -15 -26 0 -54 -20 -54 -39 0 -6 -11 -11 -25 -11 -16 0 -25 -6 -25
-15 0 -8 -5 -15 -11 -15 -17 0 -39 -27 -39 -49 0 -12 -6 -21 -15 -21 -8 0 -15
-7 -15 -15 0 -8 -4 -15 -10 -15 -6 0 -10 -35 -10 -85 0 -50 4 -85 10 -85 6 0
10 -7 10 -15 0 -8 7 -15 15 -15 11 0 15 -12 15 -50 0 -38 -4 -50 -15 -50 -9 0
-15 -9 -15 -25 0 -14 -4 -25 -10 -25 -5 0 -10 -11 -10 -25 0 -16 -6 -25 -15
-25 -9 0 -15 -9 -15 -25 0 -14 -4 -25 -10 -25 -5 0 -10 -11 -10 -25 0 -16 -6
-25 -15 -25 -9 0 -15 -9 -15 -25 0 -14 -4 -25 -10 -25 -5 0 -10 -11 -10 -25 0
-16 -6 -25 -15 -25 -8 0 -15 -7 -15 -15 0 -8 -4 -15 -10 -15 -5 0 -10 -11 -10
-25 0 -16 -6 -25 -15 -25 -9 0 -15 -9 -15 -25 0 -14 -4 -25 -10 -25 -5 0 -10
-11 -10 -25 0 -16 -6 -25 -15 -25 -9 0 -15 -9 -15 -25 0 -14 -4 -25 -10 -25
-5 0 -10 -11 -10 -25 0 -16 -6 -25 -15 -25 -11 0 -15 -12 -15 -50 0 -38 4 -50
15 -50 8 0 15 -5 15 -11 0 -14 25 -39 39 -39 6 0 11 -18 11 -40 0 -29 -4 -40
-15 -40 -9 0 -15 -9 -15 -25 0 -14 -4 -25 -10 -25 -5 0 -10 -11 -10 -25 0 -16
-6 -25 -15 -25 -9 0 -15 -9 -15 -25 0 -14 -4 -25 -10 -25 -5 0 -10 -11 -10
-25 0 -16 -6 -25 -15 -25 -9 0 -15 -9 -15 -25 0 -14 -4 -25 -10 -25 -5 0 -10
-11 -10 -25 0 -16 -6 -25 -15 -25 -8 0 -15 -4 -15 -10 0 -5 -7 -10 -15 -10 -9
0 -15 -9 -15 -25 0 -14 -4 -25 -10 -25 -5 0 -10 -11 -10 -25 0 -16 -6 -25 -15
-25 -10 0 -15 -10 -15 -30 0 -16 -4 -30 -10 -30 -5 0 -10 -22 -10 -50 0 -27 5
-50 10 -50 6 0 10 -11 10 -25 0 -20 5 -25 25 -25 14 0 25 -4 25 -10 0 -5 14
-10 30 -10 20 0 30 -5 30 -15 0 -11 12 -15 50 -15 l50 0 0 -35 c0 -24 -5 -35
-15 -35 -9 0 -15 -9 -15 -25 0 -14 -4 -25 -10 -25 -5 0 -10 -18 -10 -40 0 -22
5 -40 10 -40 6 0 10 -11 10 -25 0 -14 5 -25 11 -25 14 0 39 -25 39 -39 0 -6 7
-11 15 -11 9 0 15 -9 15 -25 0 -16 -6 -25 -15 -25 -12 0 -15 -17 -15 -90 0
-53 -4 -90 -10 -90 -5 0 -10 -11 -10 -25 0 -14 -5 -25 -11 -25 -17 0 -39 -27
-39 -49 0 -12 -6 -21 -15 -21 -8 0 -15 -7 -15 -15 0 -8 -4 -15 -10 -15 -5 0
-10 -11 -10 -25 0 -16 -6 -25 -15 -25 -9 0 -15 -9 -15 -25 0 -16 -6 -25 -15
-25 -10 0 -15 -11 -15 -35 0 -19 -4 -35 -10 -35 -5 0 -10 -18 -10 -40 0 -29
-4 -40 -15 -40 -13 0 -15 -22 -15 -140 0 -118 2 -140 15 -140 9 0 15 -9 15
-25 0 -14 5 -25 10 -25 6 0 10 -11 10 -25 0 -16 6 -25 15 -25 8 0 15 -4 15
-10 0 -5 7 -10 15 -10 8 0 15 -5 15 -11 0 -17 27 -39 49 -39 12 0 21 -6 21
-15 0 -8 7 -15 15 -15 8 0 15 -4 15 -10 0 -5 16 -10 35 -10 24 0 35 -5 35 -15
0 -11 11 -15 40 -15 29 0 40 -4 40 -15 0 -13 26 -15 175 -15 149 0 175 2 175
15 0 11 12 15 50 15 38 0 50 4 50 15 0 11 11 15 40 15 22 0 40 5 40 10 0 6 16
10 35 10 24 0 35 5 35 15 0 8 7 15 15 15 8 0 15 -7 15 -15 0 -8 5 -15 10 -15
6 0 10 -11 10 -25 0 -16 6 -25 15 -25 12 0 15 -18 15 -100 l0 -100 -25 0 c-16
0 -25 -6 -25 -15 0 -9 -9 -15 -25 -15 -14 0 -25 -4 -25 -10 0 -5 -7 -10 -15
-10 -8 0 -15 -5 -15 -11 0 -14 -25 -39 -39 -39 -6 0 -11 -7 -11 -15 0 -8 -4
-15 -10 -15 -5 0 -10 -11 -10 -25 0 -14 -5 -25 -11 -25 -21 0 -39 -29 -39 -64
0 -25 -4 -36 -15 -36 -9 0 -15 -9 -15 -25 0 -14 -4 -25 -10 -25 -5 0 -10 -11
-10 -25 0 -16 -6 -25 -15 -25 -8 0 -15 -7 -15 -15 0 -8 -4 -15 -10 -15 -5 0
-10 -11 -10 -25 0 -16 -6 -25 -15 -25 -9 0 -15 -9 -15 -25 0 -16 -6 -25 -15
-25 -10 0 -15 -11 -15 -35 0 -19 -4 -35 -10 -35 -5 0 -10 -11 -10 -25 0 -16
-6 -25 -15 -25 -9 0 -15 -9 -15 -25 0 -14 -4 -25 -10 -25 -6 0 -10 -32 -10
-75 0 -43 4 -75 10 -75 6 0 10 -7 10 -15 0 -8 5 -15 11 -15 14 0 39 -25 39
-39 0 -6 18 -11 40 -11 22 0 40 -4 40 -10 0 -5 23 -10 50 -10 38 0 50 -4 50
-15 0 -13 42 -15 315 -15 273 0 315 2 315 15 0 12 17 15 90 15 53 0 90 4 90
10 0 6 27 10 60 10 47 0 60 3 60 15 0 12 13 15 55 15 30 0 55 5 55 10 0 6 23
10 50 10 38 0 50 4 50 15 0 10 11 15 35 15 19 0 35 5 35 10 0 6 18 10 40 10
29 0 40 4 40 15 0 9 9 15 25 15 14 0 25 5 25 10 0 6 16 10 35 10 24 0 35 5 35
15 0 9 9 15 25 15 14 0 25 5 25 10 0 6 18 10 40 10 29 0 40 4 40 15 0 9 9 15
25 15 14 0 25 5 25 10 0 6 18 10 40 10 29 0 40 4 40 15 0 10 11 15 35 15 19 0
35 5 35 10 0 6 11 10 25 10 16 0 25 6 25 15 0 11 11 15 40 15 22 0 40 5 40 10
0 6 11 10 25 10 16 0 25 6 25 15 0 10 11 15 35 15 19 0 35 5 35 10 0 6 11 10
25 10 16 0 25 6 25 15 0 11 11 15 40 15 22 0 40 5 40 10 0 6 18 10 40 10 29 0
40 4 40 15 0 10 11 15 35 15 19 0 35 5 35 10 0 6 18 10 40 10 29 0 40 4 40 15
0 9 9 15 25 15 16 0 25 6 25 15 0 10 11 15 35 15 19 0 35 5 35 10 0 6 18 10
40 10 29 0 40 4 40 15 0 10 11 15 35 15 19 0 35 5 35 10 0 6 18 10 40 10 29 0
40 4 40 15 0 11 11 15 40 15 22 0 40 5 40 10 0 6 16 10 35 10 24 0 35 5 35 15
0 9 9 15 25 15 14 0 25 5 25 10 0 6 18 10 40 10 29 0 40 4 40 15 0 9 9 15 25
15 14 0 25 5 25 10 0 6 11 10 25 10 16 0 25 6 25 15 0 9 9 15 25 15 14 0 25 5
25 10 0 6 11 10 25 10 14 0 25 5 25 11 0 19 28 39 54 39 14 0 26 5 26 11 0 14
25 39 39 39 7 0 11 25 11 65 0 51 -3 65 -15 65 -8 0 -15 5 -15 10 0 6 -11 10
-25 10 -16 0 -25 6 -25 15 0 8 -7 15 -15 15 -8 0 -15 7 -15 15 0 10 -11 15
-35 15 -19 0 -35 5 -35 10 0 6 -11 10 -25 10 -16 0 -25 6 -25 15 0 9 -9 15
-25 15 -14 0 -25 5 -25 10 0 6 -11 10 -25 10 -16 0 -25 6 -25 15 0 8 -7 15
-15 15 -8 0 -15 5 -15 10 0 6 -11 10 -25 10 -14 0 -25 5 -25 11 0 17 -27 39
-49 39 -12 0 -21 6 -21 15 0 9 -9 15 -25 15 -14 0 -25 5 -25 10 0 6 -28 10
-65 10 -51 0 -65 3 -65 15 0 8 -7 15 -15 15 -9 0 -15 9 -15 25 0 14 -4 25 -10
25 -5 0 -10 11 -10 25 0 14 -5 25 -11 25 -14 0 -39 25 -39 39 0 6 -7 11 -15
11 -8 0 -15 5 -15 10 0 6 -11 10 -25 10 -16 0 -25 6 -25 15 0 12 -19 15 -110
15 l-110 0 0 25 c0 16 -6 25 -15 25 -11 0 -15 12 -15 50 0 28 -4 50 -10 50 -5
0 -10 23 -10 50 0 38 -4 50 -15 50 -12 0 -15 17 -15 90 0 53 -4 90 -10 90 -6
0 -10 40 -10 100 0 60 4 100 10 100 6 0 10 23 10 50 0 38 4 50 15 50 11 0 15
11 15 40 0 22 5 40 10 40 6 0 10 11 10 25 0 16 6 25 15 25 9 0 15 9 15 25 0
14 5 25 10 25 6 0 10 11 10 25 0 14 5 25 11 25 17 0 39 27 39 49 0 12 6 21 15
21 8 0 15 7 15 15 0 8 5 15 10 15 6 0 10 11 10 25 0 16 6 25 15 25 9 0 15 9
15 21 0 22 22 49 39 49 6 0 11 14 11 30 0 17 5 30 10 30 6 0 10 11 10 25 0 16
6 25 15 25 9 0 15 9 15 25 0 14 5 25 10 25 6 0 10 11 10 25 0 16 6 25 15 25
11 0 15 12 15 50 0 28 5 50 10 50 6 0 10 40 10 100 0 82 3 100 15 100 9 0 15
9 15 25 0 16 -6 25 -15 25 -12 0 -15 15 -15 75 0 43 -4 75 -10 75 -5 0 -10 23
-10 50 0 38 -4 50 -15 50 -11 0 -15 11 -15 40 0 22 -4 40 -10 40 -5 0 -10 11
-10 25 0 16 -6 25 -15 25 -9 0 -15 9 -15 25 0 14 -4 25 -10 25 -5 0 -10 11
-10 25 0 14 -5 25 -11 25 -17 0 -39 27 -39 49 0 12 -6 21 -15 21 -9 0 -15 10
-15 26 0 26 -20 54 -39 54 -6 0 -11 21 -11 50 0 28 -4 50 -10 50 -5 0 -10 23
-10 50 0 38 -4 50 -15 50 -9 0 -15 9 -15 25 0 14 -4 25 -10 25 -5 0 -10 11
-10 25 0 16 -6 25 -15 25 -9 0 -15 9 -15 25 0 14 -4 25 -10 25 -5 0 -10 11
-10 25 0 16 -6 25 -15 25 -9 0 -15 9 -15 25 0 14 -4 25 -10 25 -5 0 -10 7 -10
15 0 8 -7 15 -15 15 -8 0 -15 5 -15 10 0 6 -7 10 -15 10 -9 0 -15 10 -15 26 0
31 -21 54 -49 54 -12 0 -21 6 -21 15 0 8 -5 15 -11 15 -14 0 -39 25 -39 39 0
6 -7 11 -15 11 -8 0 -15 5 -15 10 0 6 -11 10 -25 10 -16 0 -25 6 -25 15 0 9
-9 15 -25 15 -14 0 -25 5 -25 10 0 6 -11 10 -25 10 -16 0 -25 6 -25 15 0 10
-11 15 -35 15 -19 0 -35 5 -35 10 0 6 -18 10 -40 10 -29 0 -40 4 -40 15 0 11
-12 15 -50 15 -27 0 -50 5 -50 10 0 6 -53 10 -140 10 -118 0 -140 2 -140 15 0
13 -21 15 -125 15 -104 0 -125 -2 -125 -15z m330 -125 c0 -5 16 -10 35 -10 24
0 35 -5 35 -15 0 -9 9 -15 25 -15 14 0 25 -4 25 -10 0 -5 11 -10 25 -10 16 0
25 -6 25 -15 0 -8 7 -15 15 -15 8 0 15 -4 15 -10 0 -5 11 -10 25 -10 16 0 25
-6 25 -15 0 -8 5 -15 11 -15 14 0 39 -25 39 -39 0 -6 7 -11 15 -11 8 0 15 -7
15 -15 0 -8 5 -15 10 -15 6 0 10 -11 10 -25 0 -14 5 -25 11 -25 14 0 39 -25
39 -39 0 -6 5 -11 11 -11 17 0 39 -27 39 -49 0 -12 6 -21 15 -21 8 0 15 -5 15
-11 0 -14 25 -39 39 -39 6 0 11 -5 11 -11 0 -14 25 -39 39 -39 6 0 11 -5 11
-11 0 -14 25 -39 39 -39 6 0 11 -11 11 -25 l0 -25 -340 0 c-296 0 -340 -2
-340 -15 0 -12 -18 -15 -100 -15 -60 0 -100 -4 -100 -10 0 -6 -50 -10 -130
-10 -109 0 -130 -2 -130 -15 0 -13 -39 -15 -290 -15 -251 0 -290 2 -290 15 0
12 -13 15 -60 15 -33 0 -60 4 -60 10 0 6 -22 10 -50 10 -38 0 -50 4 -50 15 0
11 -12 15 -50 15 -44 0 -50 3 -50 21 0 26 23 49 49 49 12 0 21 6 21 15 0 13
28 15 190 15 162 0 190 -2 190 -15 0 -12 14 -15 65 -15 63 0 65 1 65 25 0 16
-6 25 -15 25 -8 0 -15 7 -15 15 0 9 -9 15 -25 15 -14 0 -25 5 -25 10 0 6 -28
10 -65 10 -51 0 -65 3 -65 15 0 13 -21 15 -125 15 -104 0 -125 -2 -125 -15 0
-12 -13 -15 -60 -15 -33 0 -60 -4 -60 -10 0 -5 -11 -10 -25 -10 -16 0 -25 -6
-25 -15 0 -10 -10 -15 -30 -15 -16 0 -30 -4 -30 -10 0 -5 -16 -10 -35 -10 -31
0 -35 3 -35 25 0 16 -6 25 -15 25 -9 0 -15 9 -15 25 0 16 6 25 15 25 9 0 15 9
15 21 0 22 22 49 39 49 6 0 11 5 11 11 0 19 28 39 54 39 14 0 26 5 26 11 0 21
29 39 64 39 25 0 36 4 36 15 0 10 11 15 35 15 24 0 35 5 35 15 0 11 12 15 50
15 38 0 50 -4 50 -15 0 -12 14 -15 65 -15 51 0 65 -3 65 -15 0 -10 11 -15 35
-15 19 0 35 -4 35 -10 0 -5 18 -10 40 -10 29 0 40 -4 40 -15 0 -11 11 -15 40
-15 22 0 40 -4 40 -10 0 -5 11 -10 25 -10 16 0 25 -6 25 -15 0 -9 9 -15 25
-15 14 0 25 -4 25 -10 0 -5 16 -10 35 -10 24 0 35 -5 35 -15 0 -9 9 -15 25
-15 14 0 25 -4 25 -10 0 -5 11 -10 25 -10 16 0 25 -6 25 -15 0 -9 9 -15 25
-15 14 0 25 -4 25 -10 0 -5 18 -10 40 -10 29 0 40 -4 40 -15 0 -9 9 -15 25
-15 14 0 25 -4 25 -10 0 -6 28 -10 65 -10 63 0 65 1 65 25 0 20 -5 25 -25 25
-14 0 -25 5 -25 10 0 6 -11 10 -25 10 -16 0 -25 6 -25 15 0 10 -10 15 -30 15
-16 0 -30 5 -30 10 0 6 -16 10 -35 10 -24 0 -35 5 -35 15 0 9 -9 15 -25 15
-14 0 -25 5 -25 10 0 6 -11 10 -25 10 -16 0 -25 6 -25 15 0 9 -9 15 -25 15
-14 0 -25 5 -25 10 0 6 -11 10 -25 10 -16 0 -25 6 -25 15 0 9 -9 15 -25 15
-14 0 -25 5 -25 10 0 6 -18 10 -40 10 -29 0 -40 4 -40 15 0 9 -9 15 -25 15
-16 0 -25 6 -25 15 0 11 -12 15 -50 15 -27 0 -50 5 -50 10 0 6 -18 10 -40 10
-36 0 -40 3 -40 25 0 20 5 25 25 25 16 0 25 6 25 15 0 12 13 15 55 15 30 0 55
5 55 10 0 6 32 10 75 10 60 0 75 3 75 15 0 12 18 15 100 15 82 0 100 -3 100
-15 0 -11 12 -15 50 -15 28 0 50 -4 50 -10 0 -5 11 -10 25 -10 16 0 25 -6 25
-15 0 -9 9 -15 25 -15 14 0 25 -4 25 -10 0 -5 11 -10 25 -10 16 0 25 -6 25
-15 0 -9 9 -15 25 -15 14 0 25 -4 25 -10 0 -5 11 -10 25 -10 16 0 25 -6 25
-15 0 -9 9 -15 25 -15 16 0 25 -6 25 -15 0 -9 9 -15 25 -15 14 0 25 -4 25 -10
0 -5 7 -10 15 -10 8 0 15 -5 15 -11 0 -17 27 -39 49 -39 12 0 21 -6 21 -15 0
-8 5 -15 11 -15 14 0 39 -25 39 -39 0 -6 5 -11 11 -11 6 0 17 -6 25 -14 8 -8
14 -19 14 -25 0 -6 5 -11 11 -11 6 0 17 -6 25 -14 8 -8 14 -19 14 -25 0 -6 7
-11 15 -11 8 0 15 -4 15 -10 0 -5 18 -10 40 -10 36 0 40 3 40 25 0 16 -6 25
-15 25 -9 0 -15 9 -15 25 0 20 -5 25 -25 25 -14 0 -25 5 -25 10 0 6 -7 10 -15
10 -8 0 -15 5 -15 11 0 6 -6 17 -14 25 -8 8 -19 14 -25 14 -6 0 -11 11 -11 25
0 20 -5 25 -25 25 -14 0 -25 5 -25 11 0 6 -6 17 -14 25 -8 8 -19 14 -25 14 -6
0 -11 7 -11 15 0 8 -4 15 -10 15 -5 0 -10 7 -10 15 0 8 -7 15 -15 15 -8 0 -15
5 -15 10 0 6 -11 10 -25 10 -14 0 -25 5 -25 11 0 14 -25 39 -39 39 -6 0 -11 7
-11 15 0 9 -9 15 -25 15 -14 0 -25 5 -25 10 0 6 -11 10 -25 10 -16 0 -25 6
-25 15 0 8 -4 15 -10 15 -5 0 -10 5 -10 10 0 6 48 10 125 10 77 0 125 -4 125
-10z m350 -50 c0 -5 18 -10 40 -10 29 0 40 -4 40 -15 0 -9 9 -15 21 -15 22 0
49 -22 49 -39 0 -6 11 -11 25 -11 14 0 25 -4 25 -10 0 -5 11 -10 25 -10 16 0
25 -6 25 -15 0 -8 7 -15 15 -15 8 0 15 -5 15 -11 0 -14 25 -39 39 -39 6 0 11
-7 11 -15 0 -8 5 -15 10 -15 6 0 10 -11 10 -25 0 -14 5 -25 11 -25 17 0 39
-27 39 -49 0 -12 6 -21 15 -21 8 0 15 -7 15 -15 0 -8 7 -15 15 -15 9 0 15 -9
15 -25 0 -14 5 -25 10 -25 6 0 10 -22 10 -50 0 -47 -2 -50 -25 -50 -16 0 -25
6 -25 15 0 9 -9 15 -25 15 -14 0 -25 5 -25 10 0 6 -7 10 -15 10 -8 0 -15 5
-15 11 0 17 -27 39 -49 39 -16 0 -21 6 -21 25 0 16 -6 25 -15 25 -8 0 -15 5
-15 11 0 14 -25 39 -39 39 -6 0 -11 7 -11 15 0 8 -4 15 -10 15 -5 0 -10 11
-10 25 0 14 -5 25 -11 25 -6 0 -17 6 -25 14 -8 8 -14 19 -14 25 0 6 -5 11 -11
11 -14 0 -39 25 -39 39 0 6 -7 11 -15 11 -9 0 -15 9 -15 25 0 14 -4 25 -10 25
-5 0 -10 7 -10 15 0 8 -5 15 -11 15 -17 0 -39 27 -39 49 0 12 5 21 10 21 6 0
10 -4 10 -10z m-1870 -580 c0 -5 14 -10 30 -10 20 0 30 -5 30 -15 0 -9 9 -15
25 -15 14 0 25 -4 25 -10 0 -5 23 -10 50 -10 38 0 50 -4 50 -15 0 -11 12 -15
50 -15 28 0 50 -4 50 -10 0 -6 35 -10 85 -10 69 0 85 -3 85 -15 0 -13 33 -15
240 -15 207 0 240 2 240 15 0 12 15 15 75 15 74 0 75 0 75 -26 0 -26 -20 -54
-39 -54 -6 0 -11 -11 -11 -25 0 -14 -4 -25 -10 -25 -5 0 -10 -7 -10 -15 0 -8
-7 -15 -15 -15 -9 0 -15 -9 -15 -25 0 -14 -4 -25 -10 -25 -5 0 -10 -16 -10
-35 0 -24 -5 -35 -15 -35 -12 0 -15 -19 -15 -115 0 -96 3 -115 15 -115 9 0 15
-9 15 -25 0 -14 5 -25 10 -25 6 0 10 -7 10 -15 0 -8 7 -15 15 -15 10 0 15 -11
15 -35 0 -19 5 -35 10 -35 6 0 10 -70 10 -190 0 -120 -4 -190 -10 -190 -5 0
-10 -11 -10 -25 0 -16 -6 -25 -15 -25 -9 0 -15 -9 -15 -25 0 -14 -4 -25 -10
-25 -5 0 -10 -7 -10 -15 0 -8 -5 -15 -11 -15 -14 0 -39 -25 -39 -39 0 -6 -5
-11 -11 -11 -14 0 -39 -25 -39 -39 0 -6 -5 -11 -11 -11 -14 0 -39 -25 -39 -39
0 -6 -5 -11 -11 -11 -14 0 -39 -25 -39 -39 0 -6 -7 -11 -15 -11 -8 0 -15 -4
-15 -10 0 -5 -11 -10 -25 -10 -14 0 -25 -5 -25 -11 0 -14 -25 -39 -39 -39 -6
0 -11 -5 -11 -11 0 -14 -25 -39 -39 -39 -6 0 -11 -11 -11 -25 0 -14 -4 -25
-10 -25 -5 0 -10 -11 -10 -25 0 -16 -6 -25 -15 -25 -9 0 -15 -9 -15 -25 0 -16
-6 -25 -15 -25 -8 0 -15 -7 -15 -15 0 -8 -4 -15 -10 -15 -5 0 -10 7 -10 15 0
8 -7 15 -15 15 -12 0 -15 13 -15 60 0 33 -4 60 -10 60 -5 0 -10 11 -10 25 0
16 -6 25 -15 25 -8 0 -15 5 -15 11 0 17 -27 39 -49 39 -12 0 -21 6 -21 15 0 9
-9 15 -25 15 -14 0 -25 5 -25 10 0 6 -22 10 -50 10 -38 0 -50 4 -50 15 0 11
-11 15 -40 15 -22 0 -40 5 -40 10 0 6 -22 10 -50 10 l-50 0 0 50 c0 38 -4 50
-15 50 -8 0 -15 5 -15 11 0 14 -25 39 -39 39 -6 0 -11 7 -11 15 0 10 -11 15
-35 15 -31 0 -35 -3 -35 -25 0 -14 5 -25 10 -25 6 0 10 -7 10 -15 0 -8 7 -15
15 -15 9 0 15 -9 15 -25 0 -16 -6 -25 -15 -25 -8 0 -15 -4 -15 -10 0 -5 -11
-10 -25 -10 -14 0 -25 5 -25 10 0 6 -68 10 -185 10 -158 0 -185 2 -185 15 0 8
-7 15 -15 15 -9 0 -15 9 -15 25 0 16 6 25 15 25 9 0 15 9 15 25 0 14 5 25 10
25 6 0 10 7 10 15 0 8 7 15 15 15 9 0 15 9 15 25 0 14 5 25 10 25 6 0 10 11
10 25 0 16 6 25 15 25 9 0 15 9 15 25 0 14 5 25 10 25 6 0 10 11 10 25 0 16 6
25 15 25 9 0 15 9 15 25 0 14 5 25 10 25 6 0 10 11 10 25 0 16 6 25 15 25 9 0
15 9 15 25 0 14 5 25 10 25 6 0 10 16 10 35 0 24 5 35 15 35 9 0 15 9 15 25 0
14 5 25 10 25 6 0 10 11 10 25 0 20 -5 25 -25 25 -16 0 -25 6 -25 15 0 9 -9
15 -25 15 -23 0 -25 3 -25 50 0 38 4 50 15 50 9 0 15 9 15 25 0 14 5 25 10 25
6 0 10 11 10 25 0 16 6 25 15 25 8 0 15 7 15 15 0 8 5 15 10 15 6 0 10 11 10
25 0 16 6 25 15 25 9 0 15 9 15 25 0 14 5 25 10 25 6 0 10 11 10 25 0 14 5 25
11 25 17 0 39 27 39 49 0 12 6 21 15 21 9 0 15 9 15 25 0 14 5 25 10 25 6 0
10 14 10 30 0 20 5 30 15 30 9 0 15 9 15 25 0 14 5 25 10 25 6 0 10 11 10 25
0 16 6 25 15 25 8 0 15 5 15 10 0 6 5 10 10 10 6 0 10 -4 10 -10z m2220 -75
c0 -12 14 -15 65 -15 37 0 65 -4 65 -10 0 -5 11 -10 25 -10 16 0 25 -6 25 -15
0 -8 7 -15 15 -15 8 0 15 -5 15 -11 0 -14 25 -39 39 -39 6 0 11 -7 11 -15 0
-8 5 -15 10 -15 6 0 10 -11 10 -25 0 -14 5 -25 11 -25 17 0 39 -27 39 -49 0
-12 6 -21 15 -21 9 0 15 -9 15 -25 0 -14 5 -25 10 -25 6 0 10 -18 10 -40 0
-29 4 -40 15 -40 10 0 15 -11 15 -35 0 -19 5 -35 10 -35 6 0 10 -22 10 -50 0
-38 4 -50 15 -50 13 0 15 -21 15 -130 0 -109 -2 -130 -15 -130 -10 0 -15 -11
-15 -35 0 -19 -4 -35 -10 -35 -5 0 -10 -18 -10 -40 0 -29 -4 -40 -15 -40 -10
0 -15 -11 -15 -35 0 -19 -4 -35 -10 -35 -5 0 -10 -7 -10 -15 0 -8 -7 -15 -15
-15 -9 0 -15 -9 -15 -25 0 -14 -4 -25 -10 -25 -5 0 -10 -11 -10 -25 0 -16 -6
-25 -15 -25 -9 0 -15 -9 -15 -25 0 -14 -4 -25 -10 -25 -5 0 -10 -7 -10 -15 0
-8 -7 -15 -15 -15 -9 0 -15 -9 -15 -21 0 -22 -22 -49 -39 -49 -6 0 -11 -11
-11 -25 0 -14 -4 -25 -10 -25 -5 0 -10 -11 -10 -25 0 -16 -6 -25 -15 -25 -8 0
-15 -7 -15 -15 0 -8 -4 -15 -10 -15 -5 0 -10 -11 -10 -25 0 -16 -6 -25 -15
-25 -9 0 -15 -9 -15 -25 0 -16 -6 -25 -15 -25 -10 0 -15 -11 -15 -35 0 -19 -4
-35 -10 -35 -6 0 -10 -28 -10 -65 0 -51 -3 -65 -15 -65 -12 0 -15 -18 -15
-100 0 -82 3 -100 15 -100 12 0 15 -17 15 -90 0 -53 4 -90 10 -90 6 0 10 -22
10 -50 0 -38 4 -50 15 -50 11 0 15 -12 15 -50 0 -38 4 -50 15 -50 11 0 15 -12
15 -50 0 -49 -1 -50 -30 -50 -20 0 -30 -5 -30 -15 0 -10 -11 -15 -35 -15 -19
0 -35 -4 -35 -10 0 -5 -11 -10 -25 -10 -16 0 -25 -6 -25 -15 0 -9 -9 -15 -25
-15 -14 0 -25 -4 -25 -10 0 -5 -18 -10 -40 -10 -22 0 -40 -5 -40 -11 0 -17
-27 -39 -49 -39 -12 0 -21 -6 -21 -15 0 -9 -9 -15 -25 -15 -14 0 -25 -4 -25
-10 0 -5 -11 -10 -25 -10 -16 0 -25 -6 -25 -15 0 -8 -7 -15 -15 -15 -8 0 -15
-4 -15 -10 0 -5 -11 -10 -25 -10 -16 0 -25 -6 -25 -15 0 -9 -9 -15 -25 -15
-14 0 -25 -4 -25 -10 0 -5 -7 -10 -15 -10 -8 0 -15 -7 -15 -15 0 -9 -9 -15
-21 -15 -22 0 -49 -22 -49 -39 0 -6 -11 -11 -25 -11 -14 0 -25 -4 -25 -10 0
-5 -7 -10 -15 -10 -8 0 -15 -7 -15 -15 0 -9 -9 -15 -25 -15 -16 0 -25 -6 -25
-15 0 -9 -9 -15 -21 -15 -22 0 -49 -22 -49 -39 0 -6 -11 -11 -25 -11 -14 0
-25 -4 -25 -10 0 -5 -11 -10 -25 -10 -16 0 -25 -6 -25 -15 0 -9 -9 -15 -25
-15 -14 0 -25 -4 -25 -10 0 -5 -7 -10 -15 -10 -8 0 -15 -7 -15 -15 0 -9 -9
-15 -25 -15 -14 0 -25 -4 -25 -10 0 -5 -18 -10 -40 -10 -29 0 -40 -4 -40 -15
0 -9 -9 -15 -25 -15 -14 0 -25 -4 -25 -10 0 -5 -16 -10 -35 -10 -24 0 -35 -5
-35 -15 0 -11 -11 -15 -40 -15 -22 0 -40 -4 -40 -10 0 -5 -16 -10 -35 -10 -24
0 -35 -5 -35 -15 0 -12 -18 -15 -100 -15 -60 0 -100 -4 -100 -10 0 -16 -99
-12 -116 4 -10 11 -14 43 -14 125 0 92 -3 111 -15 111 -12 0 -15 14 -15 65 0
37 -4 65 -10 65 -5 0 -10 16 -10 35 0 19 5 35 10 35 6 0 10 7 10 15 0 9 9 15
25 15 14 0 25 5 25 10 0 6 14 10 30 10 20 0 30 5 30 15 0 9 9 15 25 15 14 0
25 5 25 10 0 6 11 10 25 10 14 0 25 5 25 11 0 17 27 39 49 39 12 0 21 6 21 15
0 9 9 15 25 15 14 0 25 5 25 10 0 6 7 10 15 10 8 0 15 7 15 15 0 9 9 15 21 15
22 0 49 22 49 39 0 6 11 11 25 11 14 0 25 5 25 10 0 6 7 10 15 10 8 0 15 5 15
11 0 17 27 39 49 39 12 0 21 6 21 15 0 8 5 15 11 15 14 0 39 25 39 39 0 6 7
11 15 11 8 0 15 7 15 15 0 8 5 15 11 15 14 0 39 25 39 39 0 6 5 11 11 11 14 0
39 25 39 39 0 6 5 11 11 11 17 0 39 27 39 49 0 12 6 21 15 21 9 0 15 9 15 25
0 14 5 25 10 25 6 0 10 11 10 25 0 16 6 25 15 25 11 0 15 12 15 50 0 28 5 50
10 50 6 0 10 58 10 155 0 97 -4 155 -10 155 -6 0 -10 27 -10 60 l0 60 100 0
c82 0 100 3 100 15 0 9 9 15 25 15 14 0 25 5 25 10 0 6 11 10 25 10 14 0 25 5
25 11 0 14 25 39 39 39 6 0 11 7 11 15 0 8 5 15 11 15 17 0 39 27 39 49 0 12
6 21 15 21 8 0 15 7 15 15 0 8 5 15 10 15 6 0 10 11 10 25 0 16 6 25 15 25 9
0 15 9 15 25 0 14 5 25 10 25 6 0 10 11 10 25 0 16 6 25 15 25 11 0 15 11 15
40 0 22 5 40 10 40 6 0 10 48 10 125 0 77 -4 125 -10 125 -5 0 -10 16 -10 35
0 24 -5 35 -15 35 -8 0 -15 7 -15 15 0 8 -4 15 -10 15 -5 0 -10 11 -10 25 0
14 -5 25 -11 25 -6 0 -17 6 -25 14 -8 8 -14 19 -14 25 0 6 -11 11 -25 11 -16
0 -25 6 -25 15 0 11 -11 15 -40 15 -22 0 -40 5 -40 10 0 6 -22 10 -50 10 -27
0 -50 -4 -50 -10 0 -5 -18 -10 -40 -10 -29 0 -40 -4 -40 -15 0 -9 -9 -15 -25
-15 -14 0 -25 -5 -25 -11 0 -14 -25 -39 -39 -39 -6 0 -11 -5 -11 -11 0 -14
-25 -39 -39 -39 -6 0 -11 -7 -11 -15 0 -8 -4 -15 -10 -15 -5 0 -10 -11 -10
-25 0 -16 -6 -25 -15 -25 -10 0 -15 -11 -15 -35 0 -19 -4 -35 -10 -35 -5 0
-10 -18 -10 -40 0 -29 -4 -40 -15 -40 -13 0 -15 -23 -15 -150 0 -93 -4 -150
-10 -150 -5 0 -10 -7 -10 -15 0 -8 5 -15 10 -15 6 0 10 -35 10 -85 0 -69 3
-85 15 -85 11 0 15 -12 15 -50 0 -27 5 -50 10 -50 6 0 10 -75 10 -205 0 -130
-4 -205 -10 -205 -5 0 -10 -16 -10 -35 0 -24 -5 -35 -15 -35 -9 0 -15 -9 -15
-25 0 -14 -4 -25 -10 -25 -5 0 -10 -11 -10 -25 0 -16 -6 -25 -15 -25 -8 0 -15
-5 -15 -11 0 -14 -25 -39 -39 -39 -6 0 -11 -7 -11 -15 0 -8 -5 -15 -11 -15
-14 0 -39 -25 -39 -39 0 -6 -5 -11 -11 -11 -14 0 -39 -25 -39 -39 0 -6 -5 -11
-11 -11 -14 0 -39 -25 -39 -39 0 -6 -11 -11 -25 -11 -16 0 -25 -6 -25 -15 0
-8 -5 -15 -11 -15 -14 0 -39 -25 -39 -39 0 -6 -7 -11 -15 -11 -8 0 -15 -4 -15
-10 0 -5 -11 -10 -25 -10 -14 0 -25 -5 -25 -11 0 -17 -27 -39 -49 -39 -12 0
-21 -6 -21 -15 0 -8 -7 -15 -15 -15 -8 0 -15 -4 -15 -10 0 -5 -11 -10 -25 -10
-16 0 -25 -6 -25 -15 0 -9 -9 -15 -21 -15 -22 0 -49 -22 -49 -39 0 -6 -13 -11
-30 -11 -16 0 -30 -4 -30 -10 0 -5 -11 -10 -25 -10 -16 0 -25 -6 -25 -15 0
-10 -11 -15 -35 -15 -19 0 -35 -4 -35 -10 0 -5 -11 -10 -25 -10 -16 0 -25 -6
-25 -15 0 -9 -9 -15 -25 -15 -14 0 -25 -4 -25 -10 0 -5 -18 -10 -40 -10 -29 0
-40 -4 -40 -15 0 -11 -12 -15 -50 -15 -27 0 -50 -4 -50 -10 0 -5 -22 -10 -50
-10 -38 0 -50 -4 -50 -15 0 -13 -21 -15 -125 -15 -104 0 -125 2 -125 15 0 11
-11 15 -40 15 -22 0 -40 5 -40 10 0 6 -11 10 -25 10 -16 0 -25 6 -25 15 0 9
-9 15 -21 15 -22 0 -49 22 -49 39 0 6 -11 11 -25 11 -20 0 -25 5 -25 25 0 16
-6 25 -15 25 -9 0 -15 9 -15 25 0 14 -4 25 -10 25 -5 0 -10 23 -10 50 0 38 -4
50 -15 50 -8 0 -15 5 -15 10 0 6 7 10 15 10 12 0 15 14 15 65 0 37 4 65 10 65
6 0 10 18 10 40 0 29 4 40 15 40 9 0 15 9 15 25 0 14 5 25 10 25 6 0 10 11 10
25 0 16 6 25 15 25 9 0 15 9 15 25 0 14 5 25 10 25 6 0 10 11 10 25 0 14 5 25
11 25 14 0 39 25 39 39 0 6 7 11 15 11 9 0 15 9 15 25 0 24 2 25 75 25 43 0
75 4 75 10 0 6 35 10 85 10 l85 0 0 40 0 40 -146 0 c-113 0 -149 3 -160 14
-16 16 -19 86 -4 86 6 0 10 11 10 25 0 25 1 25 90 25 53 0 90 -4 90 -10 0 -5
23 -10 50 -10 38 0 50 -4 50 -15 0 -12 14 -15 65 -15 51 0 65 -3 65 -15 0 -10
11 -15 35 -15 19 0 35 -4 35 -10 0 -5 11 -10 25 -10 23 0 25 4 25 40 0 36 -2
40 -25 40 -14 0 -25 5 -25 10 0 6 -11 10 -25 10 -16 0 -25 6 -25 15 0 10 -11
15 -35 15 -19 0 -35 5 -35 10 0 6 -33 10 -80 10 -64 0 -80 3 -80 15 0 13 -20
15 -121 15 -134 0 -149 6 -149 60 0 31 19 60 39 60 6 0 11 11 11 25 0 14 5 25
10 25 6 0 10 7 10 15 0 9 9 15 25 15 14 0 25 5 25 10 0 6 37 10 90 10 73 0 90
3 90 15 0 9 9 15 25 15 20 0 25 -5 25 -25 0 -23 3 -25 50 -25 38 0 50 -4 50
-15 0 -11 12 -15 50 -15 28 0 50 -4 50 -10 0 -5 18 -10 40 -10 29 0 40 -4 40
-15 0 -9 9 -15 21 -15 22 0 49 -22 49 -39 0 -6 5 -11 11 -11 21 0 39 -29 39
-64 0 -25 4 -36 15 -36 10 0 15 -11 15 -35 0 -24 -5 -35 -15 -35 -11 0 -15
-11 -15 -40 0 -22 -4 -40 -10 -40 -5 0 -10 -7 -10 -15 0 -8 -7 -15 -15 -15 -8
0 -15 -4 -15 -10 0 -5 -11 -10 -25 -10 -20 0 -25 -5 -25 -25 0 -23 3 -25 50
-25 28 0 50 5 50 10 0 6 23 10 50 10 38 0 50 4 50 15 0 9 9 15 25 15 14 0 25
5 25 10 0 6 14 10 30 10 20 0 30 5 30 15 0 8 5 15 10 15 6 0 10 11 10 25 0 16
6 25 15 25 8 0 15 7 15 15 0 8 5 15 10 15 6 0 10 16 10 35 0 24 5 35 15 35 9
0 15 9 15 25 0 14 5 25 10 25 6 0 10 11 10 25 0 16 6 25 15 25 8 0 15 5 15 11
0 14 25 39 39 39 6 0 11 7 11 15 0 9 9 15 21 15 22 0 49 22 49 39 0 6 5 11 11
11 14 0 39 25 39 39 0 6 5 11 11 11 14 0 39 25 39 39 0 6 5 11 11 11 14 0 39
25 39 39 0 6 5 11 11 11 14 0 39 25 39 39 0 6 7 11 15 11 9 0 15 9 15 25 0 14
5 25 10 25 6 0 10 11 10 25 0 16 6 25 15 25 11 0 15 11 15 40 0 29 4 40 15 40
13 0 15 27 15 185 0 158 -2 185 -15 185 -11 0 -15 11 -15 40 0 29 -4 40 -15
40 -8 0 -15 7 -15 15 0 8 -4 15 -10 15 -5 0 -10 11 -10 25 0 16 -6 25 -15 25
-12 0 -15 18 -15 100 0 82 3 100 15 100 10 0 15 11 15 35 0 19 5 35 10 35 6 0
10 11 10 25 0 16 6 25 15 25 8 0 15 7 15 15 0 8 5 15 11 15 17 0 39 27 39 49
0 12 6 21 15 21 8 0 15 7 15 15 0 8 5 15 10 15 6 0 10 7 10 15 0 9 9 15 25 15
14 0 25 5 25 10 0 6 32 10 75 10 60 0 75 3 75 15 0 13 50 15 390 15 340 0 390
-2 390 -15z m-550 -660 c0 -11 11 -15 36 -15 35 0 64 -18 64 -39 0 -6 7 -11
15 -11 9 0 15 -9 15 -25 0 -14 5 -25 10 -25 6 0 10 -16 10 -35 0 -24 5 -35 15
-35 9 0 15 -9 15 -25 0 -16 -6 -25 -15 -25 -12 0 -15 -15 -15 -75 0 -43 -4
-75 -10 -75 -5 0 -10 -18 -10 -40 0 -29 -4 -40 -15 -40 -11 0 -15 -11 -15 -36
0 -35 -18 -64 -39 -64 -6 0 -11 -11 -11 -25 0 -16 -6 -25 -15 -25 -8 0 -15 -7
-15 -15 0 -8 -4 -15 -10 -15 -5 0 -10 -11 -10 -25 0 -16 -6 -25 -15 -25 -8 0
-15 -4 -15 -10 0 -5 -11 -10 -25 -10 -16 0 -25 -6 -25 -15 0 -9 -9 -15 -25
-15 -14 0 -25 -4 -25 -10 0 -5 -16 -10 -35 -10 -19 0 -35 5 -35 10 0 6 -18 10
-40 10 -22 0 -40 5 -40 11 0 14 -25 39 -39 39 -6 0 -11 11 -11 25 0 14 -4 25
-10 25 -6 0 -10 58 -10 155 0 97 4 155 10 155 6 0 10 23 10 50 0 38 4 50 15
50 9 0 15 9 15 25 0 14 5 25 10 25 6 0 10 11 10 25 0 16 6 25 15 25 9 0 15 9
15 21 0 22 22 49 39 49 6 0 11 7 11 15 0 9 9 15 25 15 14 0 25 5 25 10 0 6 11
10 25 10 16 0 25 6 25 15 0 11 12 15 50 15 38 0 50 -4 50 -15z"/>
<path d="M1510 3595 c0 -11 -12 -15 -50 -15 -27 0 -50 -4 -50 -10 0 -5 -22
-10 -50 -10 -38 0 -50 -4 -50 -15 0 -10 -11 -15 -35 -15 -19 0 -35 -4 -35 -10
0 -5 -25 -10 -55 -10 -42 0 -55 -3 -55 -15 0 -11 -12 -15 -50 -15 -27 0 -50
-4 -50 -10 0 -5 -11 -10 -25 -10 -22 0 -25 -4 -25 -40 0 -29 4 -40 15 -40 8 0
15 -7 15 -15 0 -10 11 -15 35 -15 19 0 35 -4 35 -10 0 -5 7 -10 15 -10 8 0 15
-5 15 -11 0 -19 28 -39 54 -39 14 0 26 5 26 10 0 6 11 10 25 10 22 0 25 -4 25
-35 0 -19 5 -35 10 -35 6 0 10 -22 10 -50 l0 -50 75 0 c43 0 75 4 75 10 0 6
11 10 25 10 14 0 25 5 25 11 0 17 -27 39 -49 39 -18 0 -21 6 -21 40 l0 40 75
0 c60 0 75 -3 75 -15 0 -10 11 -15 35 -15 19 0 35 -4 35 -10 0 -15 19 -12 36
4 16 17 19 56 4 56 -5 0 -10 7 -10 15 0 11 -11 15 -40 15 -22 0 -40 5 -40 10
0 6 -22 10 -50 10 -38 0 -50 4 -50 15 0 12 -19 15 -110 15 l-110 0 0 25 c0 23
3 25 50 25 38 0 50 4 50 15 0 10 11 15 35 15 19 0 35 5 35 10 0 6 18 10 40 10
29 0 40 4 40 15 0 12 15 15 75 15 60 0 75 -3 75 -15 0 -11 11 -15 36 -15 35 0
64 -18 64 -39 0 -6 18 -11 40 -11 36 0 40 3 40 25 0 16 -6 25 -15 25 -8 0 -15
5 -15 11 0 14 -25 39 -39 39 -6 0 -11 7 -11 15 0 9 -9 15 -25 15 -14 0 -25 5
-25 10 0 6 -22 10 -50 10 -38 0 -50 4 -50 15 0 11 -11 15 -40 15 -29 0 -40 -4
-40 -15z"/>
<path d="M2140 2535 c0 -24 5 -35 15 -35 11 0 15 -11 15 -40 0 -22 5 -40 10
-40 6 0 10 -16 10 -35 0 -24 5 -35 15 -35 12 0 15 -19 15 -115 0 -70 4 -115
10 -115 6 0 10 -11 10 -25 0 -16 6 -25 15 -25 8 0 15 5 15 10 0 6 7 10 15 10
11 0 15 11 15 40 0 22 5 40 10 40 6 0 10 23 10 50 0 28 -4 50 -10 50 -5 0 -10
23 -10 50 0 38 -4 50 -15 50 -11 0 -15 11 -15 40 0 29 -4 40 -15 40 -9 0 -15
9 -15 21 0 22 -22 49 -39 49 -6 0 -11 5 -11 11 0 6 -6 17 -14 25 -24 23 -36
16 -36 -21z"/>
<path d="M1970 2230 c0 -5 -7 -10 -15 -10 -9 0 -15 -9 -15 -25 0 -16 6 -25 15
-25 11 0 15 -11 15 -40 0 -22 5 -40 10 -40 6 0 10 -52 10 -135 l0 -135 25 0
c20 0 25 5 25 25 0 16 6 25 15 25 12 0 15 19 15 110 0 91 -3 110 -15 110 -11
0 -15 11 -15 40 0 22 -4 40 -10 40 -5 0 -10 11 -10 25 0 16 -6 25 -15 25 -8 0
-15 5 -15 10 0 6 -4 10 -10 10 -5 0 -10 -4 -10 -10z"/>
<path d="M1690 1995 c0 -16 6 -25 15 -25 11 0 15 -12 15 -50 0 -27 5 -50 10
-50 6 0 10 -45 10 -115 0 -116 5 -131 36 -101 8 9 14 35 14 65 0 39 4 51 15
51 9 0 15 9 15 25 0 16 -6 25 -15 25 -11 0 -15 12 -15 50 0 28 -4 50 -10 50
-5 0 -10 16 -10 35 0 24 -5 35 -15 35 -8 0 -15 7 -15 15 0 9 -9 15 -25 15 -20
0 -25 -5 -25 -25z"/>
<path d="M880 1855 c0 -8 -4 -15 -10 -15 -5 0 -10 -11 -10 -25 0 -16 -6 -25
-15 -25 -9 0 -15 -9 -15 -25 0 -14 -4 -25 -10 -25 -5 0 -10 -18 -10 -40 0 -29
-4 -40 -15 -40 -12 0 -15 -16 -15 -85 0 -69 3 -85 15 -85 9 0 15 -9 15 -25 0
-14 5 -25 10 -25 6 0 10 -7 10 -15 0 -8 7 -15 15 -15 13 0 15 21 15 125 0 77
4 125 10 125 6 0 10 18 10 40 0 29 4 40 15 40 9 0 15 9 15 25 0 14 5 25 10 25
6 0 10 18 10 40 0 36 -2 40 -25 40 -16 0 -25 -6 -25 -15z"/>
<path d="M1440 1680 c0 -120 4 -190 10 -190 6 0 10 5 10 10 0 6 7 10 15 10 11
0 15 11 15 40 0 22 5 40 10 40 6 0 10 37 10 90 0 53 -4 90 -10 90 -5 0 -10 16
-10 35 0 24 -5 35 -15 35 -8 0 -15 7 -15 15 0 8 -4 15 -10 15 -6 0 -10 -70
-10 -190z"/>
<path d="M1160 1780 c0 -5 -7 -10 -15 -10 -12 0 -15 -13 -15 -55 0 -30 -4 -55
-10 -55 -17 0 -13 -239 4 -256 17 -16 36 -19 36 -4 0 6 7 10 15 10 13 0 15 22
15 140 0 87 4 140 10 140 6 0 10 23 10 50 0 47 -2 50 -25 50 -14 0 -25 -4 -25
-10z"/>
<path d="M2770 3240 c0 -5 -11 -10 -25 -10 -16 0 -25 -6 -25 -15 0 -9 -9 -15
-21 -15 -22 0 -49 -22 -49 -39 0 -6 -7 -11 -15 -11 -12 0 -15 -13 -15 -60 0
-47 3 -60 15 -60 8 0 15 -7 15 -15 0 -8 5 -15 10 -15 6 0 10 -16 10 -35 0 -19
-4 -35 -10 -35 -5 0 -10 -7 -10 -15 0 -8 -7 -15 -15 -15 -11 0 -15 -11 -15
-40 0 -36 3 -40 25 -40 16 0 25 6 25 15 0 9 9 15 25 15 16 0 25 6 25 15 0 8 5
15 11 15 25 0 39 30 39 85 0 55 -14 85 -39 85 -6 0 -11 11 -11 25 0 16 6 25
15 25 8 0 15 5 15 11 0 21 29 39 64 39 35 0 36 1 36 40 0 36 -2 40 -25 40 -14
0 -25 5 -25 10 0 6 -7 10 -15 10 -8 0 -15 -4 -15 -10z"/>
</g>
</svg>